<svg xmlns="http://www.w3.org/2000/svg" width="387.6982116699219" height="357.9761047363281" viewBox="-75.158203125 -78.7634506225586 387.6982116699219 357.9761047363281"><title>Neo4j Graph Visualization</title><desc>Created using Neo4j (http://www.neo4j.com/)</desc><g class="layer relationships"><g class="relationship" transform="translate(29.661891487670864 -49.76345016540701) rotate(384.310931288752)"><path class="outline" fill="#A5ABB6" stroke="none" d="M 24.018736134675446,-6.953439040707552 L 24.277555179777966,-5.987513214418485 A 185.1479420039013 185.1479420039013 0 0 1 60.38353590816541,-11.918986191052369 L 60.31972837838197,-12.91694841435691 A 186.1479420039013 186.1479420039013 0 0 0 24.018736134675446,-6.953439040707552 Z M 79.69763733946029,-13.145114651633861 L 79.65734536240808,-12.145926703054982 A 185.1479420039013 185.1479420039013 0 0 1 115.8929775394375,-7.066243960771378 L 115.18496628636196,-4.150987528565386 L 122.81324442343073,-5.900093775629459 L 116.83699254353822,-10.953252537046033 L 116.12898129046268,-8.037996104840042 A 186.1479420039013 186.1479420039013 0 0 0 79.69763733946029,-13.145114651633861"/><text text-anchor="middle" pointer-events="none" font-size="8px" fill="#000000" x="70.011598508969" y="-9.783408563600574" font-family="sans-serif">trek</text></g><g class="relationship" transform="translate(163.72418502687302 10.798790791164242) rotate(378.70362899037116)"><path class="outline" fill="#A5ABB6" stroke="none" d="M 21.40063509461097,-12.933012701892217 L 21.90063509461097,-12.06698729810778 A 79.54058077018387 79.54058077018387 0 0 1 36.902785566843896,-18.76882265114145 L 36.5913955861192,-19.71910486180535 A 80.54058077018387 80.54058077018387 0 0 0 21.40063509461097,-12.933012701892217 Z M 82.67667873006404,-20.935916784417785 L 82.41586917232942,-19.97052651380477 A 79.54058077018387 79.54058077018387 0 0 1 97.750773925485,-14.06969503829754 L 96.3899648354674,-11.396083506955442 L 104.21600234695283,-11.340075750146791 L 99.56518604550848,-17.634510413420337 L 98.20437695549087,-14.960898882078238 A 80.54058077018387 80.54058077018387 0 0 0 82.67667873006404,-20.935916784417785"/><text text-anchor="middle" pointer-events="none" font-size="8px" fill="#000000" x="59.55831175265831" y="-20.195519169949065" font-family="sans-serif">twowheeler</text></g><g class="relationship" transform="translate(283.54002057749733 51.36267216634709) rotate(528.4399511098267)"><path class="outline" fill="#A5ABB6" stroke="none" d="M 21.40063509461097,12.933012701892217 L 21.90063509461097,12.06698729810778 A 50.688540622438055 50.688540622438055 0 0 0 23.51005966247971,12.957650105287357 L 23.041810913316795,13.841246794341451 A 51.688540622438055 51.688540622438055 0 0 1 21.40063509461097,12.933012701892217 Z M 68.34088479349134,15.356973547988837 L 67.932748306494,14.444052626998705 A 50.688540622438055 50.688540622438055 0 0 0 69.59811035213639,13.662965607079498 L 68.27513648042003,10.970431459709067 L 76.10118567462013,11.024782264303047 L 71.36207551442487,17.253011136906736 L 70.03910164270852,14.560476989536307 A 51.688540622438055 51.688540622438055 0 0 1 68.34088479349134,15.356973547988837"/><text text-anchor="middle" pointer-events="none" font-size="8px" fill="#000000" x="45.53307254493613" y="22.32933273565009" transform="rotate(180 45.53307254493613 19.32933273565009)" font-family="sans-serif">twowheeler</text></g><g class="relationship" transform="translate(186.99989179758782 71.109372911984) rotate(462.67041054400494)"><path class="outline" fill="#A5ABB6" stroke="none" d="M 25 0.5 L 49.27222660463613 0.5 L 49.27222660463613 -0.5 L 25 -0.5 Z M 68.60816410463613 0.5 L 92.88039070927226 0.5 L 92.88039070927226 3.5 L 99.88039070927226 0 L 92.88039070927226 -3.5 L 92.88039070927226 -0.5 L 68.60816410463613 -0.5 Z"/><text text-anchor="middle" pointer-events="none" font-size="8px" fill="#000000" x="58.94019535463613" y="3" transform="rotate(180 58.94019535463613 0)" font-family="sans-serif">trek</text></g><g class="relationship" transform="translate(283.54002057749733 51.36267216634709) rotate(528.4399511098267)"><path class="outline" fill="#A5ABB6" stroke="none" d="M 25 0.5 L 34.76362574302018 0.5 L 34.76362574302018 -0.5 L 25 -0.5 Z M 56.77534449302018 0.5 L 66.53897023604036 0.5 L 66.53897023604036 3.5 L 73.53897023604036 0 L 66.53897023604036 -3.5 L 66.53897023604036 -0.5 L 56.77534449302018 -0.5 Z"/><text text-anchor="middle" pointer-events="none" font-size="8px" fill="#000000" x="45.76948511802018" y="3" transform="rotate(180 45.76948511802018 0)" font-family="sans-serif">road</text></g><g class="relationship" transform="translate(283.54002057749733 51.36267216634709) rotate(528.4399511098267)"><path class="outline" fill="#A5ABB6" stroke="none" d="M 21.40063509461097,-12.933012701892217 L 21.90063509461097,-12.06698729810778 A 50.688540622438055 50.688540622438055 0 0 1 36.06854271226282,-17.610469820593202 L 35.84805179742634,-18.585858848865804 A 51.688540622438055 51.688540622438055 0 0 0 21.40063509461097,-12.933012701892217 Z M 55.24612911078381,-19.23492696957289 L 55.09133225235828,-18.246980648854205 A 50.688540622438055 50.688540622438055 0 0 1 69.59811035213639,-13.662965607079498 L 68.27513648042003,-10.970431459709067 L 76.10118567462013,-11.024782264303047 L 71.36207551442487,-17.253011136906736 L 70.03910164270852,-14.560476989536307 A 51.688540622438055 51.688540622438055 0 0 0 55.24612911078381,-19.23492696957289"/><text text-anchor="middle" pointer-events="none" font-size="8px" fill="#000000" x="45.53307254493613" y="-16.32933273565009" transform="rotate(180 45.53307254493613 -19.32933273565009)" font-family="sans-serif">trek</text></g><g class="relationship" transform="translate(163.72418502687302 10.798790791164242) rotate(378.70362899037116)"><path class="outline" fill="#A5ABB6" stroke="none" d="M 25 0.5 L 48.74218984573517 0.5 L 48.74218984573517 -0.5 L 25 -0.5 Z M 70.75390859573517 0.5 L 94.49609844147034 0.5 L 94.49609844147034 3.5 L 101.49609844147034 0 L 94.49609844147034 -3.5 L 94.49609844147034 -0.5 L 70.75390859573517 -0.5 Z"/><text text-anchor="middle" pointer-events="none" font-size="8px" fill="#000000" x="59.74804922073517" y="3" font-family="sans-serif">road</text></g><g class="relationship" transform="translate(163.72418502687302 10.798790791164242) rotate(378.70362899037116)"><path class="outline" fill="#A5ABB6" stroke="none" d="M 21.40063509461097,12.933012701892217 L 21.90063509461097,12.06698729810778 A 79.54058077018387 79.54058077018387 0 0 0 50.00591490568981,21.86339004654394 L 49.85926007288545,22.852577773931984 A 80.54058077018387 80.54058077018387 0 0 1 21.40063509461097,12.933012701892217 Z M 69.26194666268462,23.36487625107135 L 69.1676957756114,22.3693277739564 A 79.54058077018387 79.54058077018387 0 0 0 97.750773925485,14.06969503829754 L 96.3899648354674,11.396083506955442 L 104.21600234695283,11.340075750146791 L 99.56518604550848,17.634510413420337 L 98.20437695549087,14.960898882078238 A 80.54058077018387 80.54058077018387 0 0 1 69.26194666268462,23.36487625107135"/><text text-anchor="middle" pointer-events="none" font-size="8px" fill="#000000" x="59.55831175265833" y="26.195519169949065" font-family="sans-serif">trek</text></g><g class="relationship" transform="translate(29.661891487670864 -49.76345016540701) rotate(384.310931288752)"><path class="outline" fill="#A5ABB6" stroke="none" d="M 24.018736134675446,6.953439040707552 L 24.277555179777966,5.987513214418485 A 185.1479420039013 185.1479420039013 0 0 0 59.05228586399902,11.82905132973977 L 58.98128813793383,12.826527807103304 A 186.1479420039013 186.1479420039013 0 0 1 24.018736134675446,6.953439040707552 Z M 81.03783553780539,13.086233817574168 L 80.99034392059644,12.087362181028766 A 185.1479420039013 185.1479420039013 0 0 0 115.8929775394375,7.066243960771378 L 115.18496628636196,4.150987528565386 L 122.81324442343073,5.900093775629459 L 116.83699254353822,10.953252537046033 L 116.12898129046268,8.037996104840042 A 186.1479420039013 186.1479420039013 0 0 1 81.03783553780539,13.086233817574168"/><text text-anchor="middle" pointer-events="none" font-size="8px" fill="#000000" x="70.01159850896902" y="15.783408563600574" font-family="sans-serif">road</text></g><g class="relationship" transform="translate(29.661891487670864 -49.76345016540701) rotate(363.8166378741939)"><path class="outline" fill="#A5ABB6" stroke="none" d="M 21.40063509461097,12.933012701892217 L 21.90063509461097,12.06698729810778 A 31.866153657187446 31.866153657187446 0 0 0 22.444941503888447,12.374165363596777 L 21.962022523930372,13.249830401608605 A 32.866153657187446 32.866153657187446 0 0 1 21.40063509461097,12.933012701892217 Z M 51.33332438987931,14.435811118654797 L 50.92257926261303,13.524060911401182 A 31.866153657187446 31.866153657187446 0 0 0 51.48988026760316,13.2617683250872 L 50.20423702763357,10.551210917556327 L 58.028788091836795,10.71369366641329 L 53.20407125422929,16.875844868461694 L 51.918428014259696,14.165287460930823 A 32.866153657187446 32.866153657187446 0 0 1 51.33332438987931,14.435811118654797"/><text text-anchor="middle" pointer-events="none" font-size="8px" fill="#000000" x="36.52786652744657" y="19.80988880784455" font-family="sans-serif">Publ…</text></g><g class="relationship" transform="translate(110.09986459779431 -44.39730435075838) rotate(495.00889084332704)"><path class="outline" fill="#A5ABB6" stroke="none" d="M 24.018736134675446,-6.953439040707552 L 24.277555179777966,-5.987513214418485 A 172.51535774140095 172.51535774140095 0 0 1 57.17732827818602,-11.465187552393331 L 57.109215576733924,-12.462865185650145 A 173.51535774140095 173.51535774140095 0 0 0 24.018736134675446,-6.953439040707552 Z M 76.48947927865865,-12.700987470757212 L 76.44590005869127,-11.701937496237889 A 172.51535774140095 172.51535774140095 0 0 1 109.47032747309954,-7.034263554099169 L 108.76530307409018,-4.118283342094726 L 116.39178536761148,-5.8752033250780515 L 110.41036000511204,-10.922237170105094 L 109.70533560610268,-8.00625695810065 A 173.51535774140095 173.51535774140095 0 0 0 76.48947927865865,-12.700987470757212"/><text text-anchor="middle" pointer-events="none" font-size="8px" fill="#000000" x="66.80216299659543" y="-9.352773194922833" transform="rotate(180 66.80216299659543 -12.352773194922833)" font-family="sans-serif">trek</text></g><g class="relationship" transform="translate(10.600429528077026 55.07125596163355) rotate(427.5440828431365)"><path class="outline" fill="#A5ABB6" stroke="none" d="M 24.018736134675446,-6.953439040707552 L 24.277555179777966,-5.987513214418485 A 115.82113345205887 115.82113345205887 0 0 1 42.88050194654892,-9.374211171751526 L 42.782300797440925,-10.369377757964045 A 116.82113345205887 116.82113345205887 0 0 0 24.018736134675446,-6.953439040707552 Z M 62.17674862403278,-10.665073027419538 L 62.10893145733193,-9.667375261610331 A 115.82113345205887 115.82113345205887 0 0 1 80.80647745712683,-6.849375075827646 L 80.11872195888904,-3.9292736435750446 L 87.7346733820892,-5.73129581864824 L 81.72348478811054,-10.742843652164447 L 81.03572928987275,-7.822742219911846 A 116.82113345205887 116.82113345205887 0 0 0 62.17674862403278,-10.665073027419538"/><text text-anchor="middle" pointer-events="none" font-size="8px" fill="#000000" x="52.48099934074911" y="-7.420505432007559" font-family="sans-serif">trek</text></g><g class="relationship" transform="translate(53.407648509387585 158.64234067228702) rotate(377.90217097851576)"><path class="outline" fill="#A5ABB6" stroke="none" d="M 24.018736134675446,6.953439040707552 L 24.277555179777966,5.987513214418485 A 114.89496219632105 114.89496219632105 0 0 0 42.64863008574006,9.338897365092123 L 42.54970556129173,10.333992304513828 A 115.89496219632105 115.89496219632105 0 0 1 24.018736134675446,6.953439040707552 Z M 61.944441848598245,10.630852629891947 L 61.87601883765973,9.63319623033641 A 114.89496219632105 114.89496219632105 0 0 0 80.34105787607683,6.845634170832515 L 79.65365180212105,3.9254504626578557 L 87.26938754081033,5.7283839496314775 L 81.25759930801787,10.739212448398728 L 80.57019323406209,7.819028740224068 A 115.89496219632105 115.89496219632105 0 0 1 61.944441848598245,10.630852629891947"/><text text-anchor="middle" pointer-events="none" font-size="8px" fill="#000000" x="52.248504430230874" y="13.388949081751349" font-family="sans-serif">trek</text></g><g class="relationship" transform="translate(29.661891487670864 -49.76345016540701) rotate(363.8166378741939)"><path class="outline" fill="#A5ABB6" stroke="none" d="M 25 0.5 L 27.140414493963696 0.5 L 27.140414493963696 -0.5 L 25 -0.5 Z M 46.476351993963696 0.5 L 48.61676648792739 0.5 L 48.61676648792739 3.5 L 55.61676648792739 0 L 48.61676648792739 -3.5 L 48.61676648792739 -0.5 L 46.476351993963696 -0.5 Z"/><text text-anchor="middle" pointer-events="none" font-size="8px" fill="#000000" x="36.808383243963696" y="3" font-family="sans-serif">trek</text></g><g class="relationship" transform="translate(110.09986459779431 -44.39730435075838) rotate(495.00889084332704)"><path class="outline" fill="#A5ABB6" stroke="none" d="M 24.018736134675446,6.953439040707552 L 24.277555179777966,5.987513214418485 A 172.51535774140095 172.51535774140095 0 0 0 43.733399501357184,10.01619984682415 L 43.58735791894725,11.005478299135348 A 173.51535774140095 173.51535774140095 0 0 1 24.018736134675446,6.953439040707552 Z M 90.04306282250104,11.576272318145215 L 89.9213718796276,10.583704277947191 A 172.51535774140095 172.51535774140095 0 0 0 109.47032747309954,7.034263554099169 L 108.76530307409018,4.118283342094726 L 116.39178536761148,5.8752033250780515 L 110.41036000511204,10.922237170105094 L 109.70533560610268,8.00625695810065 A 173.51535774140095 173.51535774140095 0 0 1 90.04306282250104,11.576272318145215"/><text text-anchor="middle" pointer-events="none" font-size="8px" fill="#000000" x="66.80216299659544" y="15.352773194922833" transform="rotate(180 66.80216299659544 12.352773194922833)" font-family="sans-serif">twowheeler</text></g><g class="relationship" transform="translate(53.407648509387585 158.64234067228702) rotate(377.90217097851576)"><path class="outline" fill="#A5ABB6" stroke="none" d="M 24.018736134675446,-6.953439040707552 L 24.277555179777966,-5.987513214418485 A 114.89496219632105 114.89496219632105 0 0 1 29.318560023266514,-7.21694868596343 L 29.103615877003115,-8.193575029037945 A 115.89496219632105 115.89496219632105 0 0 0 24.018736134675446,-6.953439040707552 Z M 75.44974078706723,-8.902959550539379 L 75.26478726710113,-7.920212281170421 A 114.89496219632105 114.89496219632105 0 0 1 80.34105787607683,-6.845634170832515 L 79.65365180212105,-3.9254504626578557 L 87.26938754081033,-5.7283839496314775 L 81.25759930801787,-10.739212448398728 L 80.57019323406209,-7.819028740224068 A 115.89496219632105 115.89496219632105 0 0 0 75.44974078706723,-8.902959550539379"/><text text-anchor="middle" pointer-events="none" font-size="8px" fill="#000000" x="52.24850443023083" y="-7.388949081751349" font-family="sans-serif">twowheeler</text></g><g class="relationship" transform="translate(10.600429528077026 55.07125596163355) rotate(427.5440828431365)"><path class="outline" fill="#A5ABB6" stroke="none" d="M 24.018736134675446,6.953439040707552 L 24.277555179777966,5.987513214418485 A 115.82113345205887 115.82113345205887 0 0 0 29.54732216197496,7.268099693711321 L 29.334002300183215,8.245082107353014 A 116.82113345205887 116.82113345205887 0 0 1 24.018736134675446,6.953439040707552 Z M 75.68355701359752,8.951745385042926 L 75.5001202839765,7.968713866613356 A 115.82113345205887 115.82113345205887 0 0 0 80.80647745712683,6.849375075827646 L 80.11872195888904,3.9292736435750446 L 87.7346733820892,5.73129581864824 L 81.72348478811054,10.742843652164447 L 81.03572928987275,7.822742219911846 A 116.82113345205887 116.82113345205887 0 0 1 75.68355701359752,8.951745385042926"/><text text-anchor="middle" pointer-events="none" font-size="8px" fill="#000000" x="52.480999340749094" y="13.420505432007559" font-family="sans-serif">twowheeler</text></g><g class="relationship" transform="translate(110.09986459779431 -44.39730435075838) rotate(416.3458079358521)"><path class="outline" fill="#A5ABB6" stroke="none" d="M 25 0.5 L 56.21395734680188 0.5 L 56.21395734680188 -0.5 L 25 -0.5 Z M 75.54989484680188 0.5 L 106.76385219360375 0.5 L 106.76385219360375 3.5 L 113.76385219360375 0 L 106.76385219360375 -3.5 L 106.76385219360375 -0.5 L 75.54989484680188 -0.5 Z"/><text text-anchor="middle" pointer-events="none" font-size="8px" fill="#000000" x="65.88192609680188" y="3" font-family="sans-serif">trek</text></g><g class="relationship" transform="translate(29.661891487670864 -49.76345016540701) rotate(363.8166378741939)"><path class="outline" fill="#A5ABB6" stroke="none" d="M 21.40063509461097,-12.933012701892217 L 21.90063509461097,-12.06698729810778 A 31.866153657187446 31.866153657187446 0 0 1 26.002090360351133,-14.058337730547542 L 25.630799187587176,-14.9868542166842 A 32.866153657187446 32.866153657187446 0 0 0 21.40063509461097,-12.933012701892217 Z M 47.53644194387632,-15.871379867676218 L 47.241222426500585,-14.915950416298234 A 31.866153657187446 31.866153657187446 0 0 1 51.48988026760316,-13.2617683250872 L 50.20423702763357,-10.551210917556327 L 58.028788091836795,-10.71369366641329 L 53.20407125422929,-16.875844868461694 L 51.918428014259696,-14.165287460930823 A 32.866153657187446 32.866153657187446 0 0 0 47.53644194387632,-15.871379867676218"/><text text-anchor="middle" pointer-events="none" font-size="8px" fill="#000000" x="36.52786652744657" y="-13.809888807844551" font-family="sans-serif">road</text></g><g class="relationship" transform="translate(110.09986459779431 -44.39730435075838) rotate(405.8275082864575)"><path class="outline" fill="#A5ABB6" stroke="none" d="M 25 0.5 L 25.30987117246928 0.5 L 25.30987117246928 -0.5 L 25 -0.5 Z M 44.64580867246928 0.5 L 44.95567984493856 0.5 L 44.95567984493856 3.5 L 51.95567984493856 0 L 44.95567984493856 -3.5 L 44.95567984493856 -0.5 L 44.64580867246928 -0.5 Z"/><text text-anchor="middle" pointer-events="none" font-size="8px" fill="#000000" x="34.97783992246928" y="3" font-family="sans-serif">trek</text></g><g class="relationship" transform="translate(10.600429528077026 55.07125596163355) rotate(476.660040054056)"><path class="outline" fill="#A5ABB6" stroke="none" d="M 24.018736134675446,-6.953439040707552 L 24.277555179777966,-5.987513214418485 A 144.47846789652155 144.47846789652155 0 0 1 50.08500653633391,-10.445170433604119 L 50.00481238760722,-11.441949696284695 A 145.47846789652155 145.47846789652155 0 0 0 24.018736134675446,-6.953439040707552 Z M 69.39126654990645,-11.705521005556534 L 69.33820074310425,-10.70692998809821 A 144.47846789652155 144.47846789652155 0 0 1 95.25730031807421,-6.95252848751906 L 94.55990990699583,-4.034713103616932 L 102.18176794902557,-5.8115867589865235 L 96.18715419951205,-10.842948999388565 L 95.48976378843366,-7.925133615486437 A 145.47846789652155 145.47846789652155 0 0 0 69.39126654990645,-11.705521005556534"/><text text-anchor="middle" pointer-events="none" font-size="8px" fill="#000000" x="59.700440933602835" y="-8.397100464946277" transform="rotate(180 59.700440933602835 -11.397100464946277)" font-family="sans-serif">trek</text></g><g class="relationship" transform="translate(-46.158199400674015 168.1195765031585) rotate(354.5626482140094)"><path class="outline" fill="#A5ABB6" stroke="none" d="M 21.40063509461097,12.933012701892217 L 21.90063509461097,12.06698729810778 A 52.22524237014999 52.22524237014999 0 0 0 35.51181991142203,17.545503859316312 L 35.27244454807457,18.516430960298806 A 53.22524237014999 53.22524237014999 0 0 1 21.40063509461097,12.933012701892217 Z M 57.319890542222794,19.243876986617664 L 57.14503677269339,18.259282573023235 A 52.22524237014999 52.22524237014999 0 0 0 71.08774787798468,13.689894992262438 L 69.7622686335942,10.998593304846098 L 77.58836502268788,11.0456603699207 L 72.85505353717198,17.27829724215089 L 71.5295742927815,14.58699555473455 A 53.22524237014999 53.22524237014999 0 0 1 57.319890542222794,19.243876986617664"/><text text-anchor="middle" pointer-events="none" font-size="8px" fill="#000000" x="46.274555670597856" y="22.535167018759786" font-family="sans-serif">road</text></g><g class="relationship" transform="translate(-46.158199400674015 168.1195765031585) rotate(354.5626482140094)"><path class="outline" fill="#A5ABB6" stroke="none" d="M 25 0.5 L 36.83997079224537 0.5 L 36.83997079224537 -0.5 L 25 -0.5 Z M 56.17590829224537 0.5 L 68.01587908449073 0.5 L 68.01587908449073 3.5 L 75.01587908449073 0 L 68.01587908449073 -3.5 L 68.01587908449073 -0.5 L 56.17590829224537 -0.5 Z"/><text text-anchor="middle" pointer-events="none" font-size="8px" fill="#000000" x="46.50793954224537" y="3" font-family="sans-serif">trek</text></g><g class="relationship" transform="translate(-46.158199400674015 168.1195765031585) rotate(354.5626482140094)"><path class="outline" fill="#A5ABB6" stroke="none" d="M 21.40063509461097,-12.933012701892217 L 21.90063509461097,-12.06698729810778 A 52.22524237014999 52.22524237014999 0 0 1 24.193016797202983,-13.315176847423189 L 23.73691092959101,-14.205102371009254 A 53.22524237014999 53.22524237014999 0 0 0 21.40063509461097,-12.933012701892217 Z M 69.11452684030937,-15.702317349417036 L 68.71807452518647,-14.784262034180692 A 52.22524237014999 52.22524237014999 0 0 1 71.08774787798468,-13.689894992262438 L 69.7622686335942,-10.998593304846098 L 77.58836502268788,-11.0456603699207 L 72.85505353717198,-17.27829724215089 L 71.5295742927815,-14.58699555473455 A 53.22524237014999 53.22524237014999 0 0 0 69.11452684030937,-15.702317349417036"/><text text-anchor="middle" pointer-events="none" font-size="8px" fill="#000000" x="46.274555670597856" y="-16.535167018759786" font-family="sans-serif">twowheeler</text></g><g class="relationship" transform="translate(10.600429528077026 55.07125596163355) rotate(476.660040054056)"><path class="outline" fill="#A5ABB6" stroke="none" d="M 24.018736134675446,6.953439040707552 L 24.277555179777966,5.987513214418485 A 144.47846789652155 144.47846789652155 0 0 0 36.68119628579247,8.732840300302797 L 36.508228380216835,9.717767761408851 A 145.47846789652155 145.47846789652155 0 0 1 24.018736134675446,6.953439040707552 Z M 82.9297360812458,10.348898006305689 L 82.78360860197009,9.359632238273406 A 144.47846789652155 144.47846789652155 0 0 0 95.25730031807421,6.95252848751906 L 94.55990990699583,4.034713103616932 L 102.18176794902557,5.8115867589865235 L 96.18715419951205,10.842948999388565 L 95.48976378843366,7.925133615486437 A 145.47846789652155 145.47846789652155 0 0 1 82.9297360812458,10.348898006305689"/><text text-anchor="middle" pointer-events="none" font-size="8px" fill="#000000" x="59.70044093360288" y="14.397100464946305" transform="rotate(180 59.70044093360288 11.397100464946305)" font-family="sans-serif">twowheeler</text></g><g class="relationship" transform="translate(-46.158199400674015 168.1195765031585) rotate(400.45509919283757)"><path class="outline" fill="#A5ABB6" stroke="none" d="M 25 0.5 L 50.092286280182186 0.5 L 50.092286280182186 -0.5 L 25 -0.5 Z M 69.42822378018218 0.5 L 94.52051006036437 0.5 L 94.52051006036437 3.5 L 101.52051006036437 0 L 94.52051006036437 -3.5 L 94.52051006036437 -0.5 L 69.42822378018218 -0.5 Z"/><text text-anchor="middle" pointer-events="none" font-size="8px" fill="#000000" x="59.760255030182186" y="3" font-family="sans-serif">trek</text></g><g class="relationship" transform="translate(50.113114405580234 250.21265540724445) rotate(332.3912597257897)"><path class="outline" fill="#A5ABB6" stroke="none" d="M 25 0.5 L 48.614646691649035 0.5 L 48.614646691649035 -0.5 L 25 -0.5 Z M 67.95058419164903 0.5 L 91.56523088329807 0.5 L 91.56523088329807 3.5 L 98.56523088329807 0 L 91.56523088329807 -3.5 L 91.56523088329807 -0.5 L 67.95058419164903 -0.5 Z"/><text text-anchor="middle" pointer-events="none" font-size="8px" fill="#000000" x="58.282615441649035" y="3" font-family="sans-serif">trek</text></g></g><g class="layer nodes"><g class="node" transform="translate(29.661891487670864,-49.76345016540701)"><circle class="outline" cx="0" cy="0" r="25" fill="#F16667" stroke="#eb2728" stroke-width="2px"/><text text-anchor="middle" pointer-events="none" font-family="sans-serif" dy="1.5625" font-size="25" fill="#FFFFFF"/><text text-anchor="middle" pointer-events="none" y="5" font-size="10px" fill="#FFFFFF" font-family="sans-serif"> Darjeeling</text></g><g class="node" transform="translate(159.6083301328088,192.9486700753586)"><circle class="outline" cx="0" cy="0" r="25" fill="#D9C8AE" stroke="#c0a378" stroke-width="2px"/><text text-anchor="middle" pointer-events="none" font-family="sans-serif" dy="1.5625" font-size="25" fill="#604A0E"/><text text-anchor="middle" pointer-events="none" y="5" font-size="10px" fill="#604A0E" font-family="sans-serif"> Sandak…</text></g><g class="node" transform="translate(163.72418502687302,10.798790791164242)"><circle class="outline" cx="0" cy="0" r="25" fill="#8DCC93" stroke="#5db665" stroke-width="2px"/><text text-anchor="middle" pointer-events="none" font-family="sans-serif" dy="1.5625" font-size="25" fill="#604A0E"/><text text-anchor="middle" pointer-events="none" y="5" font-size="10px" fill="#604A0E" font-family="sans-serif"> Tumbling</text></g><g class="node" transform="translate(283.54002057749733,51.36267216634709)"><circle class="outline" cx="0" cy="0" r="25" fill="#8DCC93" stroke="#5db665" stroke-width="2px"/><text text-anchor="middle" pointer-events="none" font-family="sans-serif" dy="1.5625" font-size="25" fill="#604A0E"/><text text-anchor="middle" pointer-events="none" y="5" font-size="10px" fill="#604A0E" font-family="sans-serif"> Gairibus</text></g><g class="node" transform="translate(186.99989179758782,71.109372911984)"><circle class="outline" cx="0" cy="0" r="25" fill="#8DCC93" stroke="#5db665" stroke-width="2px"/><text text-anchor="middle" pointer-events="none" font-family="sans-serif" dy="1.5625" font-size="25" fill="#604A0E"/><text text-anchor="middle" pointer-events="none" y="5" font-size="10px" fill="#604A0E" font-family="sans-serif"> BhikeBh…</text></g><g class="node" transform="translate(110.09986459779431,-44.39730435075838)"><circle class="outline" cx="0" cy="0" r="25" fill="#F16667" stroke="#eb2728" stroke-width="2px"/><text text-anchor="middle" pointer-events="none" font-family="sans-serif" dy="1.5625" font-size="25" fill="#FFFFFF"/><text text-anchor="middle" pointer-events="none" y="5" font-size="10px" fill="#FFFFFF" font-family="sans-serif"> Rimbik</text></g><g class="node" transform="translate(10.600429528077026,55.07125596163355)"><circle class="outline" cx="0" cy="0" r="25" fill="#8DCC93" stroke="#5db665" stroke-width="2px"/><text text-anchor="middle" pointer-events="none" font-family="sans-serif" dy="1.5625" font-size="25" fill="#604A0E"/><text text-anchor="middle" pointer-events="none" y="5" font-size="10px" fill="#604A0E" font-family="sans-serif"> Sirikhola</text></g><g class="node" transform="translate(53.407648509387585,158.64234067228702)"><circle class="outline" cx="0" cy="0" r="25" fill="#8DCC93" stroke="#5db665" stroke-width="2px"/><text text-anchor="middle" pointer-events="none" font-family="sans-serif" dy="1.5625" font-size="25" fill="#604A0E"/><text text-anchor="middle" pointer-events="none" y="5" font-size="10px" fill="#604A0E" font-family="sans-serif"> Gurdum</text></g><g class="node" transform="translate(-46.158199400674015,168.1195765031585)"><circle class="outline" cx="0" cy="0" r="25" fill="#8DCC93" stroke="#5db665" stroke-width="2px"/><text text-anchor="middle" pointer-events="none" font-family="sans-serif" dy="1.5625" font-size="25" fill="#604A0E"/><text text-anchor="middle" pointer-events="none" y="5" font-size="10px" fill="#604A0E" font-family="sans-serif"> Rammam</text></g><g class="node" transform="translate(50.113114405580234,250.21265540724445)"><circle class="outline" cx="0" cy="0" r="25" fill="#D9C8AE" stroke="#c0a378" stroke-width="2px"/><text text-anchor="middle" pointer-events="none" font-family="sans-serif" dy="1.5625" font-size="25" fill="#604A0E"/><text text-anchor="middle" pointer-events="none" y="5" font-size="10px" fill="#604A0E" font-family="sans-serif"> Sabargr…</text></g></g></svg>