<svg xmlns="http://www.w3.org/2000/svg" width="635.787353515625" height="320.6144714355469" viewBox="-323.6304931640625 -37.44601058959961 635.787353515625 320.6144714355469"><title>Neo4j Graph Visualization</title><desc>Created using Neo4j (http://www.neo4j.com/)</desc><g class="layer relationships"><g class="relationship" transform="translate(151.4958493018913 -8.446010440589767) rotate(539.1780770866894)"><path class="outline" fill="#A5ABB6" stroke="none" d="M 25 0.5 L 116.10766108145538 0.5 L 116.10766108145538 -0.5 L 25 -0.5 Z M 162.99828608145538 0.5 L 254.10594716291075 0.5 L 254.10594716291075 3.5 L 261.10594716291075 0 L 254.10594716291075 -3.5 L 254.10594716291075 -0.5 L 162.99828608145538 -0.5 Z"/><text text-anchor="middle" pointer-events="none" font-size="8px" fill="#000000" x="139.55297358145538" y="3" transform="rotate(180 139.55297358145538 0)" font-family="sans-serif">DIRECTED</text></g><g class="relationship" transform="translate(-294.63049440485236 190.85245228385776) rotate(344.72818147072906)"><path class="outline" fill="#A5ABB6" stroke="none" d="M 25 0.5 L 89.25313206586429 0.5 L 89.25313206586429 -0.5 L 25 -0.5 Z M 136.1437570658643 0.5 L 200.39688913172859 0.5 L 200.39688913172859 3.5 L 207.39688913172859 0 L 200.39688913172859 -3.5 L 200.39688913172859 -0.5 L 136.1437570658643 -0.5 Z"/><text text-anchor="middle" pointer-events="none" font-size="8px" fill="#000000" x="112.69844456586429" y="3" font-family="sans-serif">DIRECTED</text></g><g class="relationship" transform="translate(-294.63049440485236 190.85245228385776) rotate(309.35008105409605)"><path class="outline" fill="#A5ABB6" stroke="none" d="M 25 0.5 L 99.26560171771507 0.5 L 99.26560171771507 -0.5 L 25 -0.5 Z M 146.15622671771507 0.5 L 220.42182843543014 0.5 L 220.42182843543014 3.5 L 227.42182843543014 0 L 220.42182843543014 -3.5 L 220.42182843543014 -0.5 L 146.15622671771507 -0.5 Z"/><text text-anchor="middle" pointer-events="none" font-size="8px" fill="#000000" x="122.71091421771507" y="3" font-family="sans-serif">DIRECTED</text></g><g class="relationship" transform="translate(-294.63049440485236 190.85245228385776) rotate(359.59986723097165)"><path class="outline" fill="#A5ABB6" stroke="none" d="M 24.018736134675446,6.953439040707552 L 24.277555179777966,5.987513214418485 A 366.1824554243666 366.1824554243666 0 0 0 98.51001429114791,17.88821411224683 L 98.45391511427431,18.88663931342819 A 367.1824554243666 367.1824554243666 0 0 1 24.018736134675446,6.953439040707552 Z M 134.26096092587449,19.149782295328748 L 134.21954170206573,18.150640439584947 A 366.1824554243666 366.1824554243666 0 0 0 208.61888822848806,7.342222237921322 L 207.88510370433318,4.433346119536289 L 215.52856325874563,6.1148710346240875 L 209.59726759402793,11.220723729101367 L 208.86348306987304,8.311847610716335 A 367.1824554243666 367.1824554243666 0 0 1 134.26096092587449,19.149782295328748"/><text text-anchor="middle" pointer-events="none" font-size="8px" fill="#000000" x="116.35790272309131" y="21.954976580552625" font-family="sans-serif">WROTE</text></g><g class="relationship" transform="translate(-294.63049440485236 190.85245228385776) rotate(374.56844571187867)"><path class="outline" fill="#A5ABB6" stroke="none" d="M 25 0.5 L 98.91319982039147 0.5 L 98.91319982039147 -0.5 L 25 -0.5 Z M 145.80382482039147 0.5 L 219.71702464078294 0.5 L 219.71702464078294 3.5 L 226.71702464078294 0 L 219.71702464078294 -3.5 L 219.71702464078294 -0.5 L 145.80382482039147 -0.5 Z"/><text text-anchor="middle" pointer-events="none" font-size="8px" fill="#000000" x="122.35851232039147" y="3" font-family="sans-serif">DIRECTED</text></g><g class="relationship" transform="translate(-294.63049440485236 190.85245228385776) rotate(359.59986723097165)"><path class="outline" fill="#A5ABB6" stroke="none" d="M 24.018736134675446,-6.953439040707552 L 24.277555179777966,-5.987513214418485 A 366.1824554243666 366.1824554243666 0 0 1 90.53513667150477,-17.35275516598881 L 90.45725906832618,-18.349718093545846 A 367.1824554243666 367.1824554243666 0 0 0 24.018736134675446,-6.953439040707552 Z M 142.26464442654432,-18.730446231224676 L 142.20142763756755,-17.732446412792115 A 366.1824554243666 366.1824554243666 0 0 1 208.61888822848806,-7.342222237921322 L 207.88510370433318,-4.433346119536289 L 215.52856325874563,-6.1148710346240875 L 209.59726759402793,-11.220723729101367 L 208.86348306987304,-8.311847610716335 A 367.1824554243666 367.1824554243666 0 0 0 142.26464442654432,-18.730446231224676"/><text text-anchor="middle" pointer-events="none" font-size="8px" fill="#000000" x="116.35790272309113" y="-15.954976580552625" font-family="sans-serif">PRODUCED</text></g><g class="relationship" transform="translate(-294.63049440485236 190.85245228385776) rotate(327.26923528261534)"><path class="outline" fill="#A5ABB6" stroke="none" d="M 25 0.5 L 92.86053297175413 0.5 L 92.86053297175413 -0.5 L 25 -0.5 Z M 139.75115797175414 0.5 L 207.61169094350825 0.5 L 207.61169094350825 3.5 L 214.61169094350825 0 L 207.61169094350825 -3.5 L 207.61169094350825 -0.5 L 139.75115797175414 -0.5 Z"/><text text-anchor="middle" pointer-events="none" font-size="8px" fill="#000000" x="116.30584547175413" y="3" font-family="sans-serif">DIRECTED</text></g><g class="relationship" transform="translate(237.8262083678422 67.4794851128634) rotate(190.91588943474574)"><path class="outline" fill="#A5ABB6" stroke="none" d="M 25 0.5 L 162.6893263802552 0.5 L 162.6893263802552 -0.5 L 25 -0.5 Z M 209.5799513802552 0.5 L 347.2692777605104 0.5 L 347.2692777605104 3.5 L 354.2692777605104 0 L 347.2692777605104 -3.5 L 347.2692777605104 -0.5 L 209.5799513802552 -0.5 Z"/><text text-anchor="middle" pointer-events="none" font-size="8px" fill="#000000" x="186.1346388802552" y="3" transform="rotate(180 186.1346388802552 0)" font-family="sans-serif">DIRECTED</text></g><g class="relationship" transform="translate(237.8262083678422 67.4794851128634) rotate(517.4230221476428)"><path class="outline" fill="#A5ABB6" stroke="none" d="M 24.018736134675446,6.953439040707552 L 24.277555179777966,5.987513214418485 A 516.1363772736132 516.1363772736132 0 0 0 137.11132741472431,23.15707704178783 L 137.07112069226213,24.156268424591417 A 517.1363772736132 517.1363772736132 0 0 1 24.018736134675446,6.953439040707552 Z M 172.87146599704923,24.35661203831546 L 172.84244466502116,23.357033245879734 A 516.1363772736132 516.1363772736132 0 0 0 285.86131037167894,7.451371575573676 L 285.11733356717974,4.545085541067234 L 292.76664058627716,6.199806704159975 L 286.85327944434454,11.326419621582264 L 286.10930263984534,8.420133587075822 A 517.1363772736132 517.1363772736132 0 0 1 172.87146599704923,24.35661203831546"/><text text-anchor="middle" pointer-events="none" font-size="8px" fill="#000000" x="154.97235714741845" y="27.06634429809094" transform="rotate(180 154.97235714741845 24.06634429809094)" font-family="sans-serif">WROTE</text></g><g class="relationship" transform="translate(237.8262083678422 67.4794851128634) rotate(528.5995464096134)"><path class="outline" fill="#A5ABB6" stroke="none" d="M 25 0.5 L 130.29021787513022 0.5 L 130.29021787513022 -0.5 L 25 -0.5 Z M 177.18084287513022 0.5 L 282.47106075026045 0.5 L 282.47106075026045 3.5 L 289.47106075026045 0 L 282.47106075026045 -3.5 L 282.47106075026045 -0.5 L 177.18084287513022 -0.5 Z"/><text text-anchor="middle" pointer-events="none" font-size="8px" fill="#000000" x="153.73553037513022" y="3" transform="rotate(180 153.73553037513022 0)" font-family="sans-serif">DIRECTED</text></g><g class="relationship" transform="translate(237.8262083678422 67.4794851128634) rotate(507.12314198514576)"><path class="outline" fill="#A5ABB6" stroke="none" d="M 25 0.5 L 145.01196673824828 0.5 L 145.01196673824828 -0.5 L 25 -0.5 Z M 191.90259173824828 0.5 L 311.91455847649655 0.5 L 311.91455847649655 3.5 L 318.91455847649655 0 L 311.91455847649655 -3.5 L 311.91455847649655 -0.5 L 191.90259173824828 -0.5 Z"/><text text-anchor="middle" pointer-events="none" font-size="8px" fill="#000000" x="168.45727923824828" y="3" transform="rotate(180 168.45727923824828 0)" font-family="sans-serif">DIRECTED</text></g><g class="relationship" transform="translate(237.8262083678422 67.4794851128634) rotate(181.07053204950404)"><path class="outline" fill="#A5ABB6" stroke="none" d="M 25 0.5 L 138.52877889755808 0.5 L 138.52877889755808 -0.5 L 25 -0.5 Z M 185.41940389755808 0.5 L 298.94818279511617 0.5 L 298.94818279511617 3.5 L 305.94818279511617 0 L 298.94818279511617 -3.5 L 298.94818279511617 -0.5 L 185.41940389755808 -0.5 Z"/><text text-anchor="middle" pointer-events="none" font-size="8px" fill="#000000" x="161.97409139755808" y="3" transform="rotate(180 161.97409139755808 0)" font-family="sans-serif">DIRECTED</text></g><g class="relationship" transform="translate(237.8262083678422 67.4794851128634) rotate(517.4230221476428)"><path class="outline" fill="#A5ABB6" stroke="none" d="M 24.018736134675446,-6.953439040707552 L 24.277555179777966,-5.987513214418485 A 516.1363772736132 516.1363772736132 0 0 1 129.12444310687303,-22.77370222239415 L 129.0687620162796,-23.772150827055498 A 517.1363772736132 517.1363772736132 0 0 0 24.018736134675446,-6.953439040707552 Z M 180.87762248739227,-24.062080274420964 L 180.83311944330103,-23.06307102568178 A 516.1363772736132 516.1363772736132 0 0 1 285.86131037167894,-7.451371575573676 L 285.11733356717974,-4.545085541067234 L 292.76664058627716,-6.199806704159975 L 286.85327944434454,-11.326419621582264 L 286.10930263984534,-8.420133587075822 A 517.1363772736132 517.1363772736132 0 0 0 180.87762248739227,-24.062080274420964"/><text text-anchor="middle" pointer-events="none" font-size="8px" fill="#000000" x="154.97235714741834" y="-21.06634429809094" transform="rotate(180 154.97235714741834 -24.06634429809094)" font-family="sans-serif">PRODUCED</text></g><g class="relationship" transform="translate(283.15686638004195 197.94176745187713) rotate(181.48514334970986)"><path class="outline" fill="#A5ABB6" stroke="none" d="M 25 0.5 L 142.12348630836343 0.5 L 142.12348630836343 -0.5 L 25 -0.5 Z M 189.01411130836343 0.5 L 306.13759761672685 0.5 L 306.13759761672685 3.5 L 313.13759761672685 0 L 306.13759761672685 -3.5 L 306.13759761672685 -0.5 L 189.01411130836343 -0.5 Z"/><text text-anchor="middle" pointer-events="none" font-size="8px" fill="#000000" x="165.56879880836343" y="3" transform="rotate(180 165.56879880836343 0)" font-family="sans-serif">DIRECTED</text></g></g><g class="layer nodes"><g class="node" transform="translate(-134.58065999307772,-4.341886710512753)"><circle class="outline" cx="0" cy="0" r="25" fill="#F79767" stroke="#f36924" stroke-width="2px"/><text text-anchor="middle" pointer-events="none" font-family="sans-serif" dy="1.5625" font-size="25" fill="#FFFFFF"/><text text-anchor="middle" pointer-events="none" font-family="sans-serif" dy="1.5625" font-size="25" fill="#FFFFFF"/><text text-anchor="middle" pointer-events="none" y="0" font-size="10px" fill="#FFFFFF" font-family="sans-serif"> Cloud</text><text text-anchor="middle" pointer-events="none" y="10" font-size="10px" fill="#FFFFFF" font-family="sans-serif"> Atlas</text></g><g class="node" transform="translate(151.4958493018913,-8.446010440589767)"><circle class="outline" cx="0" cy="0" r="25" fill="#57C7E3" stroke="#23b3d7" stroke-width="2px"/><text text-anchor="middle" pointer-events="none" font-family="sans-serif" dy="1.5625" font-size="25" fill="#FFFFFF"/><text text-anchor="middle" pointer-events="none" font-family="sans-serif" dy="1.5625" font-size="25" fill="#FFFFFF"/><text text-anchor="middle" pointer-events="none" y="0" font-size="10px" fill="#FFFFFF" font-family="sans-serif"> Tom</text><text text-anchor="middle" pointer-events="none" y="10" font-size="10px" fill="#FFFFFF" font-family="sans-serif"> Tykwer</text></g><g class="node" transform="translate(-294.63049440485236,190.85245228385776)"><circle class="outline" cx="0" cy="0" r="25" fill="#57C7E3" stroke="#23b3d7" stroke-width="2px"/><text text-anchor="middle" pointer-events="none" font-family="sans-serif" dy="1.5625" font-size="25" fill="#FFFFFF"/><text text-anchor="middle" pointer-events="none" font-family="sans-serif" dy="1.5625" font-size="25" fill="#FFFFFF"/><text text-anchor="middle" pointer-events="none" y="0" font-size="10px" fill="#FFFFFF" font-family="sans-serif"> Lana</text><text text-anchor="middle" pointer-events="none" y="10" font-size="10px" fill="#FFFFFF" font-family="sans-serif"> Wacho…</text></g><g class="node" transform="translate(237.8262083678422,67.4794851128634)"><circle class="outline" cx="0" cy="0" r="25" fill="#57C7E3" stroke="#23b3d7" stroke-width="2px"/><text text-anchor="middle" pointer-events="none" font-family="sans-serif" dy="1.5625" font-size="25" fill="#FFFFFF"/><text text-anchor="middle" pointer-events="none" font-family="sans-serif" dy="1.5625" font-size="25" fill="#FFFFFF"/><text text-anchor="middle" pointer-events="none" y="0" font-size="10px" fill="#FFFFFF" font-family="sans-serif"> Andy</text><text text-anchor="middle" pointer-events="none" y="10" font-size="10px" fill="#FFFFFF" font-family="sans-serif"> Wacho…</text></g><g class="node" transform="translate(-54.8671437119237,189.1780055108953)"><circle class="outline" cx="0" cy="0" r="25" fill="#F79767" stroke="#f36924" stroke-width="2px"/><text text-anchor="middle" pointer-events="none" font-family="sans-serif" dy="1.5625" font-size="25" fill="#FFFFFF"/><text text-anchor="middle" pointer-events="none" font-family="sans-serif" dy="1.5625" font-size="25" fill="#FFFFFF"/><text text-anchor="middle" pointer-events="none" y="0" font-size="10px" fill="#FFFFFF" font-family="sans-serif"> V for</text><text text-anchor="middle" pointer-events="none" y="10" font-size="10px" fill="#FFFFFF" font-family="sans-serif"> Vendetta</text></g><g class="node" transform="translate(283.15686638004195,197.94176745187713)"><circle class="outline" cx="0" cy="0" r="25" fill="#57C7E3" stroke="#23b3d7" stroke-width="2px"/><text text-anchor="middle" pointer-events="none" font-family="sans-serif" dy="1.5625" font-size="25" fill="#FFFFFF"/><text text-anchor="middle" pointer-events="none" font-family="sans-serif" dy="1.5625" font-size="25" fill="#FFFFFF"/><text text-anchor="middle" pointer-events="none" y="0" font-size="10px" fill="#FFFFFF" font-family="sans-serif"> James</text><text text-anchor="middle" pointer-events="none" y="10" font-size="10px" fill="#FFFFFF" font-family="sans-serif"> Marshall</text></g><g class="node" transform="translate(-70.44021564968236,129.63943904497103)"><circle class="outline" cx="0" cy="0" r="25" fill="#F79767" stroke="#f36924" stroke-width="2px"/><text text-anchor="middle" pointer-events="none" font-family="sans-serif" dy="1.5625" font-size="25" fill="#FFFFFF"/><text text-anchor="middle" pointer-events="none" font-family="sans-serif" dy="1.5625" font-size="25" fill="#FFFFFF"/><text text-anchor="middle" pointer-events="none" font-family="sans-serif" dy="1.5625" font-size="25" fill="#FFFFFF"/><text text-anchor="middle" pointer-events="none" y="-5" font-size="10px" fill="#FFFFFF" font-family="sans-serif"> The</text><text text-anchor="middle" pointer-events="none" y="5" font-size="10px" fill="#FFFFFF" font-family="sans-serif"> Matrix</text><text text-anchor="middle" pointer-events="none" y="15" font-size="10px" fill="#FFFFFF" font-family="sans-serif"> Revol…</text></g><g class="node" transform="translate(-93.06420853936828,61.29630677465673)"><circle class="outline" cx="0" cy="0" r="25" fill="#F79767" stroke="#f36924" stroke-width="2px"/><text text-anchor="middle" pointer-events="none" font-family="sans-serif" dy="1.5625" font-size="25" fill="#FFFFFF"/><text text-anchor="middle" pointer-events="none" font-family="sans-serif" dy="1.5625" font-size="25" fill="#FFFFFF"/><text text-anchor="middle" pointer-events="none" font-family="sans-serif" dy="1.5625" font-size="25" fill="#FFFFFF"/><text text-anchor="middle" pointer-events="none" y="-5" font-size="10px" fill="#FFFFFF" font-family="sans-serif"> The</text><text text-anchor="middle" pointer-events="none" y="5" font-size="10px" fill="#FFFFFF" font-family="sans-serif"> Matrix</text><text text-anchor="middle" pointer-events="none" y="15" font-size="10px" fill="#FFFFFF" font-family="sans-serif"> Reloa…</text></g><g class="node" transform="translate(-51.00671457477833,254.16844074898506)"><circle class="outline" cx="0" cy="0" r="25" fill="#F79767" stroke="#f36924" stroke-width="2px"/><text text-anchor="middle" pointer-events="none" font-family="sans-serif" dy="1.5625" font-size="25" fill="#FFFFFF"/><text text-anchor="middle" pointer-events="none" font-family="sans-serif" dy="1.5625" font-size="25" fill="#FFFFFF"/><text text-anchor="middle" pointer-events="none" y="0" font-size="10px" fill="#FFFFFF" font-family="sans-serif"> The</text><text text-anchor="middle" pointer-events="none" y="10" font-size="10px" fill="#FFFFFF" font-family="sans-serif"> Matrix</text></g></g></svg>